Coordinates
version=1
nRows=24
nColumns=24
inDegrees=yes

Units are S.I. units (second, meters, Newtons, ...)
Angles are in degrees.

endheader
time	pelvis_tilt	pelvis_list	pelvis_rotation	pelvis_tx	pelvis_ty	pelvis_tz	hip_flexion_r	hip_adduction_r	hip_rotation_r	knee_angle_r	ankle_angle_r	subtalar_angle_r	mtp_angle_r	hip_flexion_l	hip_adduction_l	hip_rotation_l	knee_angle_l	ankle_angle_l	subtalar_angle_l	mtp_angle_l	lumbar_extension	lumbar_bending	lumbar_rotation
      2.28000000	     -2.90138606	      5.66836407	     -7.82071395	      0.10996063	      0.95843261	     -0.02082552	     10.46843984	     -7.29794831	      9.08126023	    -55.02027761	     -6.60197151	      0.00000000	      0.00000000	     13.55050422	      7.35586127	     -2.54301856	    -13.70927406	     10.85017124	      0.00000000	      0.00000000	     -1.85767121	     -5.51608745	      8.35436352
      2.29000000	     -2.75774608	      5.72878047	     -7.90963598	      0.10884748	      0.95884756	     -0.02158930	     11.66224544	     -7.64438277	      8.59234481	    -55.93614208	     -4.63524057	      0.00000000	      0.00000000	     12.87217999	      7.58491285	     -2.41028667	    -13.51985425	     11.17265058	      0.00000000	      0.00000000	     -2.07021022	     -5.60003325	      8.00158276
      2.30000000	     -2.63799553	      5.73419252	     -8.00316188	      0.10770554	      0.95928924	     -0.02235102	     12.82081099	     -7.91577658	      8.13400783	    -56.56266984	     -2.70936407	      0.00000000	      0.00000000	     12.21070039	      7.75445774	     -2.30613795	    -13.31171211	     11.49210329	      0.00000000	      0.00000000	     -2.25843291	     -5.59657782	      7.65947130
      2.31000000	     -2.53001429	      5.71839607	     -8.08936797	      0.10647648	      0.95974392	     -0.02308313	     13.95389257	     -8.13550197	      7.70265581	    -56.93875592	     -0.82074346	      0.00000000	      0.00000000	     11.58569744	      7.89029470	     -2.23582870	    -13.15363280	     11.77349904	      0.00000000	      0.00000000	     -2.43883204	     -5.56288139	      7.33333177
      2.32000000	     -2.44570197	      5.67125192	     -8.17429525	      0.10513983	      0.96020789	     -0.02375384	     15.06911394	     -8.28269918	      7.30765737	    -57.05702750	      0.97011404	      0.00000000	      0.00000000	     11.00532090	      7.98371959	     -2.19203767	    -13.03381779	     12.03349807	      0.00000000	      0.00000000	     -2.60643703	     -5.49438234	      7.03392287
      2.33000000	     -2.40409776	      5.56213798	     -8.26002193	      0.10377294	      0.96065705	     -0.02435107	     16.15742301	     -8.31397812	      6.95312660	    -56.89983243	      2.56768885	      0.00000000	      0.00000000	     10.45632654	      7.99507125	     -2.21287031	    -12.90008840	     12.31115140	      0.00000000	      0.00000000	     -2.73327889	     -5.34342938	      6.74992430
      2.34000000	     -2.37689717	      5.43562495	     -8.36424506	      0.10229143	      0.96109106	     -0.02487501	     17.22557702	     -8.27953370	      6.64515276	    -56.51497566	      4.07849857	      0.00000000	      0.00000000	      9.97619257	      7.97738911	     -2.21906034	    -12.87339725	     12.55583693	      0.00000000	      0.00000000	     -2.85858622	     -5.17067710	      6.52291657
      2.35000000	     -2.38224390	      5.26476889	     -8.48257098	      0.10074760	      0.96152193	     -0.02536048	     18.28908384	     -8.17711096	      6.31833199	    -55.89061870	      5.17084927	      0.00000000	      0.00000000	      9.49366547	      7.90418831	     -2.32609974	    -12.76992852	     12.80505291	      0.00000000	      0.00000000	     -2.96065534	     -4.93736906	      6.35445085
      2.36000000	     -2.43052439	      5.07117070	     -8.59773130	      0.09915202	      0.96190470	     -0.02560631	     19.29813819	     -7.92823637	      6.15411113	    -55.01032969	      6.42276777	      0.00000000	      0.00000000	      9.08244346	      7.77834236	     -2.37099682	    -12.74362030	     13.06275196	      0.00000000	      0.00000000	     -3.02160410	     -4.69333267	      6.14371375
      2.37000000	     -2.50390122	      4.83860658	     -8.71967391	      0.09746646	      0.96222129	     -0.02581647	     20.29416077	     -7.61963381	      5.96270022	    -53.93772260	      7.41440444	      0.00000000	      0.00000000	      8.70973408	      7.60486515	     -2.45598225	    -12.73712296	     13.33757002	      0.00000000	      0.00000000	     -3.08407879	     -4.39750123	      5.98480931
      2.38000000	     -2.52754159	      4.74423182	     -8.88291132	      0.09567181	      0.96259050	     -0.02593138	     21.23249700	     -7.44376736	      5.83649472	    -52.63519517	      7.84535512	      0.00000000	      0.00000000	      8.33242395	      7.57882317	     -2.50852183	    -12.77018066	     13.51342178	      0.00000000	      0.00000000	     -3.19978596	     -4.28189989	      5.87895751
      2.39000000	     -2.71358119	      4.31126437	     -9.00098220	      0.09392394	      0.96276037	     -0.02589768	     22.17112267	     -6.82159680	      5.66562349	    -51.15474089	      8.77716604	      0.00000000	      0.00000000	      7.98111821	      7.15962154	     -2.61983156	    -12.63128864	     13.88204524	      0.00000000	      0.00000000	     -3.17822330	     -3.75160078	      5.73833653
      2.40000000	     -2.73921820	      4.28024509	     -9.15833447	      0.09199989	      0.96297874	     -0.02586303	     23.04807383	     -6.65468220	      5.60219919	    -49.55574388	      8.96081351	      0.00000000	      0.00000000	      7.63443626	      7.19312299	     -2.63915857	    -12.69257215	     14.05169575	      0.00000000	      0.00000000	     -3.31297184	     -3.71711611	      5.63465165
      2.41000000	     -2.94196631	      3.62980177	     -9.23021559	      0.09016981	      0.96318615	     -0.02564258	     23.72007815	     -5.78315935	      5.35326971	    -47.49894747	      9.28244368	      0.00000000	      0.00000000	      7.33117755	      6.53064451	     -2.68194303	    -12.70714929	     14.58199572	      0.00000000	      0.00000000	     -3.35267393	     -2.95920318	      5.48522866
      2.42000000	     -3.02644177	      3.65228330	     -9.38906465	      0.08826346	      0.96318586	     -0.02547023	     24.54341360	     -5.63876853	      5.30286927	    -45.59439616	      9.36311281	      0.00000000	      0.00000000	      6.98467448	      6.60954279	     -2.65634276	    -12.63022346	     14.77224606	      0.00000000	      0.00000000	     -3.42620169	     -2.98531532	      5.38664544
      2.43000000	     -3.21628083	      3.11986445	     -9.46113028	      0.08655080	      0.96330112	     -0.02511643	     25.08921215	     -4.89937505	      5.05005711	    -43.23117060	      9.25195814	      0.00000000	      0.00000000	      6.53970575	      6.07592160	     -2.60266456	    -12.35669228	     15.09347578	      0.00000000	      0.00000000	     -3.46337924	     -2.37525017	      5.24497812
      2.44000000	     -3.29998197	      3.20815896	     -9.60224884	      0.08466107	      0.96311150	     -0.02481668	     25.80420293	     -4.80746023	      5.00359944	    -41.09600744	      9.21724681	      0.00000000	      0.00000000	      6.21944980	      6.22293451	     -2.53171903	    -12.31698930	     15.32713517	      0.00000000	      0.00000000	     -3.54587446	     -2.48953441	      5.14490492
      2.45000000	     -3.37341604	      2.56842509	     -9.54734277	      0.08296921	      0.96331221	     -0.02452594	     25.96444900	     -4.04764790	      4.57796074	    -38.31816189	      8.65983598	      0.00000000	      0.00000000	      5.68262842	      5.60961683	     -2.30253949	    -12.15726601	     15.76849997	      0.00000000	      0.00000000	     -3.77682125	     -1.78062593	      4.89412483
      2.46000000	     -3.52457582	      2.68070592	     -9.63515989	      0.08125795	      0.96285671	     -0.02409574	     26.58224178	     -3.96405197	      4.50037316	    -35.94710969	      8.53973212	      0.00000000	      0.00000000	      5.36651235	      5.77200261	     -2.16563974	    -12.00588118	     16.03275914	      0.00000000	      0.00000000	     -3.77358286	     -1.92406518	      4.78519199
      2.47000000	     -3.66771115	      2.21990724	     -9.53159526	      0.07972259	      0.96270532	     -0.02375739	     26.75025470	     -3.39674624	      4.04708492	    -33.05772883	      7.80713973	      0.00000000	      0.00000000	      4.89762864	      5.33277017	     -1.83541867	    -11.78048134	     16.34636818	      0.00000000	      0.00000000	     -3.88838280	     -1.41368518	      4.52135487
      2.48000000	     -3.71298577	      2.00046992	     -9.41872894	      0.07810416	      0.96239500	     -0.02336926	     26.88049146	     -3.06965124	      3.69755918	    -30.24877178	      7.31718232	      0.00000000	      0.00000000	      4.49086975	      5.15709426	     -1.54453881	    -11.79599093	     16.74629633	      0.00000000	      0.00000000	     -4.09209303	     -1.20896386	      4.28076392
      2.49000000	     -3.85924881	      2.18810099	     -9.40112679	      0.07651278	      0.96157586	     -0.02283188	     27.34359640	     -3.05663670	      3.61049979	    -27.76865722	      7.23559490	      0.00000000	      0.00000000	      4.23484498	      5.38618460	     -1.38665042	    -11.76199402	     17.06456990	      0.00000000	      0.00000000	     -4.10051254	     -1.46076789	      4.16613125
      2.50000000	     -3.92035259	      1.70621692	     -9.06063937	      0.07507820	      0.96119353	     -0.02255743	     27.14068578	     -2.54564506	      3.04585735	    -24.56940899	      6.35958331	      0.00000000	      0.00000000	      3.84790702	      4.92906527	     -0.95686360	    -11.88758450	     17.53869280	      0.00000000	      0.00000000	     -4.34879963	     -0.95228992	      3.78280790
      2.51000000	     -4.08665770	      1.92344295	     -8.97253590	      0.07365487	      0.96009528	     -0.02198628	     27.54071690	     -2.55636109	      2.96559154	    -22.10352926	      6.36336827	      0.00000000	      0.00000000	      3.63397122	      5.17801793	     -0.79210026	    -11.91287785	     17.88183220	      0.00000000	      0.00000000	     -4.32745803	     -1.23441368	      3.70068606
